<?xml version="1.0" encoding="utf-8"?>
<!-- Generator: Adobe Illustrator 17.0.0, SVG Export Plug-In . SVG Version: 6.00 Build 0)  -->
<!DOCTYPE svg PUBLIC "-//W3C//DTD SVG 1.1//EN" "http://www.w3.org/Graphics/SVG/1.1/DTD/svg11.dtd">
<svg version="1.1" xmlns="http://www.w3.org/2000/svg" xmlns:xlink="http://www.w3.org/1999/xlink" x="0px" y="0px" width="26px"
	 height="26px" viewBox="0 0 26 26" style="enable-background:new 0 0 26 26;" xml:space="preserve">
<style type="text/css">
	.st0{fill:#4D5459;}
	.st1{display:none;fill:#FFFFFF;}
	.st2{fill:#85ED08;}
</style>
<g id="ButtonHintergrund">
	<path class="st0" d="M0,23.8C0,25,1,26,2.2,26h21.7c1.2,0,2.2-1,2.2-2.2V2.2C26,1,25,0,23.8,0H2.2C1,0,0,1,0,2.2V23.8z"/>
	<rect x="4" y="4" class="st1" width="18" height="1"/>
	<rect x="4" y="21" class="st1" width="18" height="1"/>
	<rect x="4" y="4" class="st1" width="1" height="18"/>
	<rect x="21" y="4" class="st1" width="1" height="18"/>
</g>
<g id="Calculate">
	<polygon class="st2" points="5,6 7,6 7,4 9,4 9,6 11,6 11,8 9,8 9,10 7,10 7,8 5,8 	"/>
	<rect x="15" y="6" class="st2" width="6" height="2"/>
	<rect x="5" y="16" class="st2" width="2" height="2"/>
	<rect x="5" y="20" class="st2" width="2" height="2"/>
	<rect x="9" y="16" class="st2" width="2" height="2"/>
	<rect x="7" y="18" class="st2" width="2" height="2"/>
	<rect x="9" y="20" class="st2" width="2" height="2"/>
	<rect x="17" y="16" class="st2" width="2" height="2"/>
	<rect x="17" y="20" class="st2" width="2" height="2"/>
</g>
</svg>
