<?xml version="1.0" encoding="UTF-8" standalone="no"?>
<svg
   xmlns:dc="http://purl.org/dc/elements/1.1/"
   xmlns:cc="http://creativecommons.org/ns#"
   xmlns:rdf="http://www.w3.org/1999/02/22-rdf-syntax-ns#"
   xmlns:svg="http://www.w3.org/2000/svg"
   xmlns="http://www.w3.org/2000/svg"
   viewBox="0 0 20.006533 20.167868"
   height="20.167868"
   width="20.006533"
   xml:space="preserve"
   id="svg2"
   version="1.1"><metadata
     id="metadata8"><rdf:RDF><cc:Work
         rdf:about=""><dc:format>image/svg+xml</dc:format><dc:type
           rdf:resource="http://purl.org/dc/dcmitype/StillImage" /></cc:Work></rdf:RDF></metadata><defs
     id="defs6"><clipPath
       id="clipPath18"
       clipPathUnits="userSpaceOnUse"><path
         id="path16"
         d="M 0,15.126 H 15.005 V 0 H 0 Z" /></clipPath><clipPath
       id="clipPath30"
       clipPathUnits="userSpaceOnUse"><path
         id="path28"
         d="M 0,15.126 H 15.005 V 0 H 0 Z" /></clipPath></defs><g
     transform="matrix(1.3333333,0,0,-1.3333333,0,20.167867)"
     id="g10"><g
       id="g12"><g
         clip-path="url(#clipPath18)"
         id="g14"><g
           transform="translate(15.0185,7.5019)"
           id="g20"><path
             id="path22"
             style="fill:#4d5459;fill-opacity:1;fill-rule:nonzero;stroke:none"
             d="m 0,0 c 0,-4.142 -3.359,-7.502 -7.503,-7.502 -4.142,0 -7.502,3.36 -7.502,7.502 0,4.144 3.36,7.503 7.502,7.503 C -3.359,7.503 0,4.144 0,0" /></g></g></g><g
       id="g24"><g
         clip-path="url(#clipPath30)"
         id="g26"><g
           transform="translate(7.499,3.4443)"
           id="g32"><path
             id="path34"
             style="fill:#ffffff;fill-opacity:1;fill-rule:nonzero;stroke:none"
             d="m 0,0 c -0.576,0 -1.019,0.468 -1.019,1.008 0,0.575 0.443,1.019 1.019,1.019 0.562,0 1.006,-0.456 1.006,-1.019 C 1.006,0.468 0.551,0 0,0 M 0.647,3.37 C 0.647,3.154 0.611,3.118 0.395,3.118 H -0.48 c -0.216,0 -0.252,0.036 -0.252,0.252 v 1.499 c 0,0.287 0.431,0.336 0.851,0.48 0.432,0.156 0.852,0.395 0.852,1.043 0,0.552 -0.348,0.852 -0.996,0.852 -0.743,0 -1.379,-0.396 -1.498,-0.396 -0.061,0 -0.12,0.06 -0.145,0.12 l -0.299,0.816 c -0.012,0.035 -0.025,0.083 -0.025,0.131 0,0.312 1.428,0.708 2.23,0.708 C 1.691,8.623 2.59,7.687 2.59,6.38 2.59,4.833 1.356,4.426 0.647,4.186 Z" /></g></g></g></g></svg>