<?xml version="1.0" encoding="utf-8"?>
<!-- Generator: Adobe Illustrator 17.0.0, SVG Export Plug-In . SVG Version: 6.00 Build 0)  -->
<!DOCTYPE svg PUBLIC "-//W3C//DTD SVG 1.1//EN" "http://www.w3.org/Graphics/SVG/1.1/DTD/svg11.dtd">
<svg version="1.1" xmlns="http://www.w3.org/2000/svg" xmlns:xlink="http://www.w3.org/1999/xlink" x="0px" y="0px" width="26px"
	 height="26px" viewBox="0 0 26 26" style="enable-background:new 0 0 26 26;" xml:space="preserve">
<style type="text/css">
	.st0{fill:#4D5459;}
	.st1{display:none;fill:#FFFFFF;}
	.st2{fill:#FFFFFF;}
	.st3{fill:#85ED08;}
</style>
<g id="ButtonHintergrund">
	<path class="st0" d="M0,23.8C0,25,1,26,2.2,26h21.7c1.2,0,2.2-1,2.2-2.2V2.2C26,1,25,0,23.8,0H2.2C1,0,0,1,0,2.2V23.8z"/>
	<rect x="4" y="4" class="st1" width="18" height="1"/>
	<rect x="4" y="21" class="st1" width="18" height="1"/>
	<rect x="4" y="4" class="st1" width="1" height="18"/>
	<rect x="21" y="4" class="st1" width="1" height="18"/>
</g>
<g id="projektdaten">
	<g>
		<g>
			<polygon class="st2" points="11.2,13.5 17.8,6.9 18,6.1 15.7,3.9 14.9,4.1 8.3,10.6 7,14.9 			"/>
		</g>
		<polygon class="st3" points="7,14.9 7.7,12.8 9.1,14.2 		"/>
		<path class="st2" d="M10.5,3"/>
		<path class="st2" d="M12.4,2.9"/>
	</g>
	<rect x="7" y="20" class="st3" width="12" height="2"/>
	<rect x="7" y="17" class="st3" width="12" height="2"/>
</g>
</svg>
