<?xml version="1.0" encoding="utf-8"?>
<!-- Generator: Adobe Illustrator 17.0.0, SVG Export Plug-In . SVG Version: 6.00 Build 0)  -->
<!DOCTYPE svg PUBLIC "-//W3C//DTD SVG 1.1//EN" "http://www.w3.org/Graphics/SVG/1.1/DTD/svg11.dtd">
<svg version="1.1" id="Ebene_1" xmlns="http://www.w3.org/2000/svg" xmlns:xlink="http://www.w3.org/1999/xlink" x="0px" y="0px"
	 width="28.906px" height="55.384px" viewBox="0 0 28.906 55.384" enable-background="new 0 0 28.906 55.384" xml:space="preserve">
<g>
	<rect x="1.546" y="7.262" fill="#8E9BA4" width="9.178" height="40.946"/>
	<path fill="none" stroke="#FFFFFF" stroke-width="0.3138" stroke-miterlimit="10" d="M9.099,45.542c0,0.26-0.211,0.471-0.471,0.471
		H3.572c-0.26,0-0.471-0.211-0.471-0.471V9.772c0-0.26,0.211-0.471,0.471-0.471h5.057c0.26,0,0.471,0.211,0.471,0.471V45.542z"/>
	<rect x="4.079" y="9.419" fill="#FFFFFF" width="3.923" height="36.553"/>
	
		<rect x="1.04" y="6.321" fill="#8E9BA4" stroke="#FFFFFF" stroke-width="0.3138" stroke-miterlimit="10" width="10.119" height="0.745"/>
	
		<rect x="1.04" y="3.203" fill="#8E9BA4" stroke="#FFFFFF" stroke-width="0.3138" stroke-miterlimit="10" width="10.119" height="0.745"/>
	
		<rect x="2.275" y="0.157" fill="#8E9BA4" stroke="#FFFFFF" stroke-width="0.3138" stroke-miterlimit="10" width="7.766" height="3.046"/>
	
		<rect x="0.157" y="3.968" fill="#8E9BA4" stroke="#FFFFFF" stroke-width="0.3138" stroke-miterlimit="10" width="11.923" height="2.353"/>
	<line fill="none" stroke="#FFFFFF" stroke-width="0.3138" stroke-miterlimit="10" x1="3.294" y1="3.968" x2="3.294" y2="6.321"/>
	<line fill="none" stroke="#FFFFFF" stroke-width="0.3138" stroke-miterlimit="10" x1="8.628" y1="3.968" x2="8.628" y2="6.321"/>
	<line fill="none" stroke="#FFFFFF" stroke-width="0.3138" stroke-miterlimit="10" x1="7.843" y1="0.268" x2="7.843" y2="3.092"/>
	<line fill="none" stroke="#FFFFFF" stroke-width="0.3138" stroke-miterlimit="10" x1="4.47" y1="0.268" x2="4.47" y2="3.092"/>
	<line fill="none" stroke="#8E9BA4" stroke-width="0.3138" stroke-miterlimit="10" x1="4.941" y1="42.011" x2="6.158" y2="42.011"/>
	<line fill="none" stroke="#8E9BA4" stroke-width="0.3138" stroke-miterlimit="10" x1="4.843" y1="38.795" x2="6.06" y2="38.795"/>
	<line fill="none" stroke="#8E9BA4" stroke-width="0.3138" stroke-miterlimit="10" x1="4.884" y1="35.344" x2="6.1" y2="35.344"/>
	<line fill="none" stroke="#8E9BA4" stroke-width="0.3138" stroke-miterlimit="10" x1="4.884" y1="31.971" x2="6.1" y2="31.971"/>
	<line fill="none" stroke="#8E9BA4" stroke-width="0.3138" stroke-miterlimit="10" x1="4.884" y1="28.755" x2="6.1" y2="28.755"/>
	<line fill="none" stroke="#8E9BA4" stroke-width="0.3138" stroke-miterlimit="10" x1="4.884" y1="25.46" x2="6.1" y2="25.46"/>
	<line fill="none" stroke="#8E9BA4" stroke-width="0.3138" stroke-miterlimit="10" x1="4.884" y1="22.166" x2="6.1" y2="22.166"/>
	<line fill="none" stroke="#8E9BA4" stroke-width="0.3138" stroke-miterlimit="10" x1="4.884" y1="18.872" x2="6.1" y2="18.872"/>
	<line fill="none" stroke="#8E9BA4" stroke-width="0.3138" stroke-miterlimit="10" x1="4.884" y1="15.577" x2="6.1" y2="15.577"/>
	<line fill="none" stroke="#8E9BA4" stroke-width="0.3138" stroke-miterlimit="10" x1="4.884" y1="12.125" x2="6.1" y2="12.125"/>
	<line fill="none" stroke="#8E9BA4" stroke-width="0.1569" stroke-miterlimit="10" x1="4.884" y1="40.364" x2="5.726" y2="40.364"/>
	<line fill="none" stroke="#8E9BA4" stroke-width="0.1569" stroke-miterlimit="10" x1="4.884" y1="37.109" x2="5.726" y2="37.109"/>
	<line fill="none" stroke="#8E9BA4" stroke-width="0.1569" stroke-miterlimit="10" x1="4.884" y1="33.854" x2="5.726" y2="33.854"/>
	<line fill="none" stroke="#8E9BA4" stroke-width="0.1569" stroke-miterlimit="10" x1="4.884" y1="30.442" x2="5.726" y2="30.442"/>
	<line fill="none" stroke="#8E9BA4" stroke-width="0.1569" stroke-miterlimit="10" x1="4.884" y1="27.029" x2="5.726" y2="27.029"/>
	<line fill="none" stroke="#8E9BA4" stroke-width="0.1569" stroke-miterlimit="10" x1="4.884" y1="23.774" x2="5.726" y2="23.774"/>
	<line fill="none" stroke="#8E9BA4" stroke-width="0.1569" stroke-miterlimit="10" x1="4.884" y1="20.518" x2="5.726" y2="20.518"/>
	<line fill="none" stroke="#8E9BA4" stroke-width="0.1569" stroke-miterlimit="10" x1="4.884" y1="17.106" x2="5.726" y2="17.106"/>
	<line fill="none" stroke="#8E9BA4" stroke-width="0.1569" stroke-miterlimit="10" x1="4.884" y1="13.851" x2="5.726" y2="13.851"/>
	<g>
		<text transform="matrix(1 0 0 1 6.1968 12.6748)" fill="#8E9BA4" font-family="'Helvetica-Narrow-Bold'" font-size="1.8826">10</text>
	</g>
	<g>
		<text transform="matrix(1 0 0 1 6.3535 19.3032)" fill="#8E9BA4" font-family="'Helvetica-Narrow-Bold'" font-size="1.8826">8</text>
	</g>
	<g>
		<text transform="matrix(1 0 0 1 6.3535 25.8921)" fill="#8E9BA4" font-family="'Helvetica-Narrow-Bold'" font-size="1.8826">6</text>
	</g>
	<g>
		<text transform="matrix(1 0 0 1 6.3535 32.559)" fill="#8E9BA4" font-family="'Helvetica-Narrow-Bold'" font-size="1.8826">4</text>
	</g>
	<g>
		<text transform="matrix(1 0 0 1 6.3535 39.227)" fill="#8E9BA4" font-family="'Helvetica-Narrow-Bold'" font-size="1.8826">2</text>
	</g>
	<text transform="matrix(1 0 0 1 6.3535 42.5605)" fill="#8E9BA4" font-family="'Helvetica-Narrow-Bold'" font-size="1.8826">1</text>
	<path opacity="0.7" fill="#8E9BA4" d="M4.275,27.01v-3.883h3.529v3.883c0,0-1.646,4.707-1.883,4.707"/>
	
		<rect x="1.04" y="48.248" fill="#8E9BA4" stroke="#FFFFFF" stroke-width="0.3138" stroke-miterlimit="10" width="10.119" height="0.745"/>
	
		<rect x="1.04" y="51.366" fill="#8E9BA4" stroke="#FFFFFF" stroke-width="0.3138" stroke-miterlimit="10" width="10.119" height="0.745"/>
	
		<rect x="2.275" y="52.111" fill="#8E9BA4" stroke="#FFFFFF" stroke-width="0.3138" stroke-miterlimit="10" width="7.766" height="3.046"/>
	
		<rect x="0.157" y="48.993" fill="#8E9BA4" stroke="#FFFFFF" stroke-width="0.3138" stroke-miterlimit="10" width="11.923" height="2.354"/>
	<line fill="none" stroke="#FFFFFF" stroke-width="0.3138" stroke-miterlimit="10" x1="3.294" y1="51.346" x2="3.294" y2="48.993"/>
	<line fill="none" stroke="#FFFFFF" stroke-width="0.3138" stroke-miterlimit="10" x1="8.628" y1="51.346" x2="8.628" y2="48.993"/>
	<line fill="none" stroke="#FFFFFF" stroke-width="0.3138" stroke-miterlimit="10" x1="7.843" y1="55.045" x2="7.843" y2="52.222"/>
	<line fill="none" stroke="#FFFFFF" stroke-width="0.3138" stroke-miterlimit="10" x1="4.47" y1="55.045" x2="4.47" y2="52.222"/>
</g>
<g>
	<path opacity="0.7" fill="#8E9BA4" stroke="#8E9BA4" stroke-width="0.1609" stroke-miterlimit="10" d="M19.174,27.704h6.757v1.609
		h-0.805v4.343c0,0-2.373,6.815-2.574,6.815c-0.261,0-2.573-6.815-2.573-6.815v-4.343h-0.805V27.704z"/>
	<g>
		<text transform="matrix(1 0 0 1 23.1552 16.8593)" fill="#8E9BA4" font-family="'Helvetica-Narrow-Bold'" font-size="1.8826">100</text>
	</g>
	<g>
		<text transform="matrix(1 0 0 1 23.3564 21.0815)" fill="#8E9BA4" font-family="'Helvetica-Narrow-Bold'" font-size="1.8826">80</text>
	</g>
	<g>
		<text transform="matrix(1 0 0 1 23.4365 25.0903)" fill="#8E9BA4" font-family="'Helvetica-Narrow-Bold'" font-size="1.8826">60</text>
	</g>
	<g>
		<text transform="matrix(1 0 0 1 23.4365 29.4741)" fill="#8E9BA4" font-family="'Helvetica-Narrow-Bold'" font-size="1.8826">40</text>
	</g>
	<g>
		<text transform="matrix(1 0 0 1 23.3174 34.5131)" fill="#8E9BA4" font-family="'Helvetica-Narrow-Bold'" font-size="1.8826">20</text>
	</g>
	<g>
		<text transform="matrix(1 0 0 1 23.3174 37.6098)" fill="#8E9BA4" font-family="'Helvetica-Narrow-Bold'" font-size="1.8826">10</text>
	</g>
	<polygon fill="#8E9BA4" stroke="#FFFFFF" stroke-width="0.3217" stroke-miterlimit="10" points="16.359,8.039 17.608,8.2 
		27.565,8.2 28.745,8.039 28.745,4.741 26.976,3.455 26.976,0.278 18.304,0.278 18.29,3.455 16.359,4.741 	"/>
	<line fill="none" stroke="#FFFFFF" stroke-width="0.1609" stroke-miterlimit="10" x1="18.29" y1="3.455" x2="26.976" y2="3.455"/>
	
		<line fill="none" stroke="#8E9BA4" stroke-width="0.3138" stroke-miterlimit="10" x1="20.702" y1="16.377" x2="22.097" y2="16.377"/>
	
		<line fill="none" stroke="#8E9BA4" stroke-width="0.1569" stroke-miterlimit="10" x1="20.702" y1="17.396" x2="21.774" y2="17.396"/>
	
		<line fill="none" stroke="#8E9BA4" stroke-width="0.1569" stroke-miterlimit="10" x1="20.702" y1="19.379" x2="21.774" y2="19.379"/>
	
		<line fill="none" stroke="#8E9BA4" stroke-width="0.1569" stroke-miterlimit="10" x1="20.702" y1="21.524" x2="21.774" y2="21.524"/>
	
		<line fill="none" stroke="#8E9BA4" stroke-width="0.1569" stroke-miterlimit="10" x1="20.702" y1="23.669" x2="21.774" y2="23.669"/>
	
		<line fill="none" stroke="#8E9BA4" stroke-width="0.1569" stroke-miterlimit="10" x1="20.702" y1="25.653" x2="21.774" y2="25.653"/>
	
		<line fill="none" stroke="#8E9BA4" stroke-width="0.1569" stroke-miterlimit="10" x1="20.702" y1="27.797" x2="21.774" y2="27.797"/>
	
		<line fill="none" stroke="#8E9BA4" stroke-width="0.1569" stroke-miterlimit="10" x1="20.702" y1="30.264" x2="21.774" y2="30.264"/>
	
		<line fill="none" stroke="#989898" stroke-width="0.1609" stroke-miterlimit="10" x1="20.702" y1="31.284" x2="21.774" y2="31.284"/>
	
		<line fill="none" stroke="#8E9BA4" stroke-width="0.1569" stroke-miterlimit="10" x1="20.702" y1="32.729" x2="21.774" y2="32.729"/>
	
		<line fill="none" stroke="#8E9BA4" stroke-width="0.1569" stroke-miterlimit="10" x1="20.702" y1="35.412" x2="21.774" y2="35.412"/>
	
		<line fill="none" stroke="#8E9BA4" stroke-width="0.3138" stroke-miterlimit="10" x1="20.702" y1="18.414" x2="22.097" y2="18.414"/>
	
		<line fill="none" stroke="#8E9BA4" stroke-width="0.3138" stroke-miterlimit="10" x1="20.702" y1="20.452" x2="22.097" y2="20.452"/>
	<line fill="none" stroke="#8E9BA4" stroke-width="0.3138" stroke-miterlimit="10" x1="20.702" y1="22.65" x2="22.097" y2="22.65"/>
	
		<line fill="none" stroke="#8E9BA4" stroke-width="0.3138" stroke-miterlimit="10" x1="20.702" y1="24.527" x2="22.097" y2="24.527"/>
	
		<line fill="none" stroke="#8E9BA4" stroke-width="0.3138" stroke-miterlimit="10" x1="20.702" y1="26.726" x2="22.097" y2="26.726"/>
	
		<line fill="none" stroke="#8E9BA4" stroke-width="0.3138" stroke-miterlimit="10" x1="20.702" y1="28.924" x2="22.097" y2="28.924"/>
	
		<line fill="none" stroke="#8E9BA4" stroke-width="0.3138" stroke-miterlimit="10" x1="20.702" y1="31.284" x2="22.097" y2="31.284"/>
	
		<line fill="none" stroke="#8E9BA4" stroke-width="0.3138" stroke-miterlimit="10" x1="20.702" y1="33.963" x2="22.097" y2="33.963"/>
	
		<line fill="none" stroke="#8E9BA4" stroke-width="0.3138" stroke-miterlimit="10" x1="20.702" y1="36.915" x2="22.097" y2="36.915"/>
	<line fill="none" stroke="#FFFFFF" stroke-width="0.3217" stroke-miterlimit="10" x1="18.893" y1="4.802" x2="18.893" y2="7.918"/>
	<line fill="none" stroke="#FFFFFF" stroke-width="0.3217" stroke-miterlimit="10" x1="21.024" y1="4.801" x2="21.024" y2="7.919"/>
	<line fill="none" stroke="#FFFFFF" stroke-width="0.3217" stroke-miterlimit="10" x1="23.88" y1="4.802" x2="23.88" y2="7.918"/>
	<line fill="none" stroke="#FFFFFF" stroke-width="0.3217" stroke-miterlimit="10" x1="26.011" y1="4.801" x2="26.011" y2="7.919"/>
	<line fill="none" stroke="#FFFFFF" stroke-width="0.3217" stroke-miterlimit="10" x1="27.733" y1="4.801" x2="27.733" y2="7.758"/>
	<line fill="none" stroke="#FFFFFF" stroke-width="0.3217" stroke-miterlimit="10" x1="17.439" y1="4.802" x2="17.439" y2="7.757"/>
	<line fill="none" stroke="#FFFFFF" stroke-width="0.1609" stroke-miterlimit="10" x1="16.52" y1="4.801" x2="28.585" y2="4.801"/>
	<polygon fill="#8E9BA4" stroke="#FFFFFF" stroke-width="0.3217" stroke-miterlimit="10" points="16.359,47.621 17.278,47.461 
		27.894,47.461 28.745,47.621 28.745,50.758 26.976,52.046 26.976,55.223 18.304,55.223 18.29,52.046 16.359,50.758 	"/>
	
		<line fill="none" stroke="#FFFFFF" stroke-width="0.1609" stroke-miterlimit="10" x1="18.29" y1="51.551" x2="26.976" y2="51.551"/>
	
		<line fill="none" stroke="#FFFFFF" stroke-width="0.3217" stroke-miterlimit="10" x1="18.893" y1="50.204" x2="18.893" y2="47.086"/>
	
		<line fill="none" stroke="#FFFFFF" stroke-width="0.3217" stroke-miterlimit="10" x1="21.024" y1="50.204" x2="21.024" y2="47.086"/>
	<line fill="none" stroke="#FFFFFF" stroke-width="0.3217" stroke-miterlimit="10" x1="23.88" y1="50.204" x2="23.88" y2="47.086"/>
	
		<line fill="none" stroke="#FFFFFF" stroke-width="0.3217" stroke-miterlimit="10" x1="26.011" y1="50.204" x2="26.011" y2="47.086"/>
	
		<line fill="none" stroke="#FFFFFF" stroke-width="0.3217" stroke-miterlimit="10" x1="27.733" y1="50.204" x2="27.733" y2="47.246"/>
	
		<line fill="none" stroke="#FFFFFF" stroke-width="0.3217" stroke-miterlimit="10" x1="17.439" y1="50.204" x2="17.439" y2="47.246"/>
	
		<line fill="none" stroke="#FFFFFF" stroke-width="0.1609" stroke-miterlimit="10" x1="16.52" y1="50.204" x2="28.585" y2="50.204"/>
	<polygon fill="none" stroke="#8E9BA4" stroke-miterlimit="10" points="17.601,7.878 27.573,7.878 26.768,41.496 27.896,43.186 
		27.896,47.208 17.279,47.208 17.279,43.186 18.404,41.496 	"/>
	<line fill="none" stroke="#FFFFFF" stroke-width="0.3217" stroke-miterlimit="10" x1="25.528" y1="0.337" x2="25.528" y2="3.455"/>
	<line fill="none" stroke="#FFFFFF" stroke-width="0.3217" stroke-miterlimit="10" x1="23.236" y1="0.337" x2="23.236" y2="3.455"/>
	<line fill="none" stroke="#FFFFFF" stroke-width="0.3217" stroke-miterlimit="10" x1="21.546" y1="0.337" x2="21.546" y2="3.455"/>
	<line fill="none" stroke="#FFFFFF" stroke-width="0.3217" stroke-miterlimit="10" x1="19.255" y1="0.337" x2="19.255" y2="3.455"/>
	
		<line fill="none" stroke="#FFFFFF" stroke-width="0.3217" stroke-miterlimit="10" x1="19.214" y1="54.668" x2="19.214" y2="51.551"/>
	
		<line fill="none" stroke="#FFFFFF" stroke-width="0.3217" stroke-miterlimit="10" x1="21.546" y1="54.668" x2="21.546" y2="51.551"/>
	
		<line fill="none" stroke="#FFFFFF" stroke-width="0.3217" stroke-miterlimit="10" x1="23.236" y1="54.668" x2="23.236" y2="51.551"/>
	
		<line fill="none" stroke="#FFFFFF" stroke-width="0.3217" stroke-miterlimit="10" x1="25.528" y1="54.668" x2="25.528" y2="51.551"/>
</g>
</svg>
