<?xml version="1.0" encoding="utf-8"?>
<!-- Generator: Adobe Illustrator 17.0.0, SVG Export Plug-In . SVG Version: 6.00 Build 0)  -->
<!DOCTYPE svg PUBLIC "-//W3C//DTD SVG 1.1//EN" "http://www.w3.org/Graphics/SVG/1.1/DTD/svg11.dtd">
<svg version="1.1" id="Ebene_1" xmlns="http://www.w3.org/2000/svg" xmlns:xlink="http://www.w3.org/1999/xlink" x="0px" y="0px"
	 width="68.929px" height="55.191px" viewBox="0 0 68.929 55.191" enable-background="new 0 0 68.929 55.191" xml:space="preserve">
<g>
	<polygon fill="#8E9BA4" points="24.701,49.561 35.869,49.561 35.869,55 2.79,55 2.79,49.561 13.946,49.561 13.946,5.364 
		2.79,5.364 2.79,0 35.869,0 35.869,5.364 24.765,5.364 	"/>
	<path fill="#8E9BA4" stroke="#FFFFFF" stroke-width="1.0062" d="M19.042,46.229c-10.072,0-18.239-8.165-18.239-18.239
		C0.804,17.917,8.97,9.75,19.042,9.75c10.074,0,18.24,8.167,18.24,18.239C37.282,38.063,29.116,46.229,19.042,46.229"/>
	<circle fill="#FFFFFF" stroke="#989898" stroke-width="0.2146" stroke-miterlimit="10" cx="19.186" cy="27.997" r="15.342"/>
	<path fill="none" stroke="#8E9BA4" stroke-miterlimit="10" d="M24.218,35.598c-2.8,0-5.722-3.404-5.722-7.403
		c0-4,2.655-6.491,5.507-7.188"/>
	<path fill="#FFFFFF" stroke="#8E9BA4" stroke-width="1.0062" stroke-linecap="round" d="M8.983,17.93
		c-2.623,2.861-4.278,6.226-4.041,10.658c0.25,4.685,2.289,7.939,5.865,11.122"/>
	<path fill="#8E9BA4" d="M5.406,29.839c0,0,19.188-3.055,20.26-3.111c1.02-0.054,1.404,0.645,1.449,1.001
		c0.054,0.429,0.018,1.251-0.966,1.448C25.172,29.373,5.406,29.839,5.406,29.839z"/>
	<circle fill="#FFFFFF" cx="25.542" cy="28.015" r="0.429"/>
	
		<line fill="none" stroke="#8E9BA4" stroke-width="0.5069" stroke-miterlimit="10" x1="8.196" y1="19.718" x2="10.557" y2="20.934"/>
	<line fill="none" stroke="#8E9BA4" stroke-width="0.5069" stroke-miterlimit="10" x1="7.195" y1="21.435" x2="9.197" y2="22.15"/>
	<line fill="none" stroke="#8E9BA4" stroke-width="0.5069" stroke-miterlimit="10" x1="6.336" y1="23.223" x2="8.411" y2="23.867"/>
	<line fill="none" stroke="#8E9BA4" stroke-width="0.5069" stroke-miterlimit="10" x1="6.05" y1="25.154" x2="7.91" y2="25.369"/>
	<line fill="none" stroke="#8E9BA4" stroke-width="0.5069" stroke-miterlimit="10" x1="5.836" y1="26.942" x2="8.053" y2="27.157"/>
	<line fill="none" stroke="#8E9BA4" stroke-width="0.5069" stroke-miterlimit="10" x1="5.692" y1="29.017" x2="8.84" y2="29.017"/>
	<line fill="none" stroke="#8E9BA4" stroke-width="0.5069" stroke-miterlimit="10" x1="6.265" y1="30.947" x2="8.053" y2="30.59"/>
	<line fill="none" stroke="#8E9BA4" stroke-width="0.5069" stroke-miterlimit="10" x1="6.766" y1="32.808" x2="8.554" y2="32.235"/>
	<line fill="none" stroke="#8E9BA4" stroke-width="0.5069" stroke-miterlimit="10" x1="7.338" y1="34.524" x2="9.054" y2="33.952"/>
	
		<line fill="none" stroke="#8E9BA4" stroke-width="0.5069" stroke-miterlimit="10" x1="8.482" y1="36.169" x2="10.199" y2="35.454"/>
	<rect x="14.49" y="14.567" fill="#8E9BA4" width="8.94" height="2.36"/>
	<rect x="26.793" y="27.372" fill="#8E9BA4" width="7.821" height="1.073"/>
</g>
<g>
	<path fill="#8E9BA4" d="M52.991,25.992h4.26v-2.509c0,0,0.161-0.259,0.211-0.38c0.062-0.148,0.092-0.228,0.092-0.228V22.19h-4.866
		v0.685c0,0,0.043,0.093,0.101,0.228c0.06,0.135,0.202,0.38,0.202,0.38V25.992z"/>
	<path fill="#8E9BA4" d="M52.991,51.389h4.26v2.51c0,0,0.161,0.26,0.211,0.379c0.062,0.15,0.092,0.229,0.092,0.229v0.685h-4.866
		v-0.685c0,0,0.043-0.092,0.101-0.229c0.06-0.135,0.202-0.379,0.202-0.379V51.389z"/>
	<path fill="#8E9BA4" stroke="#FFFFFF" stroke-width="0.6037" d="M55.001,51.928c-7.139,0-12.926-5.785-12.926-12.926
		c0-7.139,5.787-12.927,12.926-12.927c7.14,0,12.928,5.788,12.928,12.927C67.929,46.143,62.141,51.928,55.001,51.928"/>
	<circle fill="#FFFFFF" cx="55.103" cy="39.008" r="10.873"/>
	<path fill="#FFFFFF" stroke="#8E9BA4" stroke-width="0.6037" stroke-linecap="round" d="M51.278,47.303
		c-3.293-1.238-5.635-4.57-5.635-8.295c0-3.271,1.807-6.35,4.475-7.896"/>
	<path fill="none" stroke="#8E9BA4" stroke-width="1.2166" stroke-linecap="round" d="M58.643,40.973
		c-0.734-0.584-0.994-1.293-1.014-2.004c-0.02-0.734,0.324-1.457,1.104-2.027"/>
	<path fill="#8E9BA4" d="M49.836,46.23c0,0,7.255-5.842,7.685-6.127c0.41-0.271,0.721-0.111,0.816,0.008
		c0.115,0.143,0.279,0.451-0.084,0.764C57.892,41.188,49.836,46.23,49.836,46.23z"/>
	<path fill="none" stroke="#F4A83C" stroke-width="0.3041" stroke-miterlimit="10" d="M48.987,34.002"/>
	<path fill="none" stroke="#F4A83C" stroke-width="0.3041" stroke-miterlimit="10" d="M47.314,33.14"/>
	<path fill="none" stroke="#F4A83C" stroke-width="0.3041" stroke-miterlimit="10" d="M47.466,36.08"/>
	<path fill="none" stroke="#F4A83C" stroke-width="0.3041" stroke-miterlimit="10" d="M45.997,35.623"/>
	
		<line fill="none" stroke="#8E9BA4" stroke-width="0.3041" stroke-miterlimit="10" x1="48.328" y1="32.557" x2="49.519" y2="33.292"/>
	<line fill="none" stroke="#8E9BA4" stroke-width="0.3041" stroke-miterlimit="10" x1="47.39" y1="33.57" x2="48.126" y2="34.002"/>
	
		<line fill="none" stroke="#8E9BA4" stroke-width="0.3041" stroke-miterlimit="10" x1="46.706" y1="34.66" x2="48.177" y2="35.219"/>
	
		<line fill="none" stroke="#8E9BA4" stroke-width="0.3041" stroke-miterlimit="10" x1="46.174" y1="35.599" x2="47.214" y2="35.801"/>
	
		<line fill="none" stroke="#8E9BA4" stroke-width="0.3041" stroke-miterlimit="10" x1="45.743" y1="36.612" x2="47.44" y2="36.885"/>
	<line fill="none" stroke="#8E9BA4" stroke-width="0.3041" stroke-miterlimit="10" x1="45.54" y1="37.676" x2="46.7" y2="37.701"/>
	
		<line fill="none" stroke="#8E9BA4" stroke-width="0.3041" stroke-miterlimit="10" x1="45.54" y1="38.741" x2="47.264" y2="38.716"/>
	
		<line fill="none" stroke="#8E9BA4" stroke-width="0.3041" stroke-miterlimit="10" x1="45.489" y1="39.881" x2="46.624" y2="39.793"/>
	
		<line fill="none" stroke="#8E9BA4" stroke-width="0.3041" stroke-miterlimit="10" x1="45.692" y1="40.82" x2="47.498" y2="40.535"/>
	<line fill="none" stroke="#8E9BA4" stroke-width="0.3041" stroke-miterlimit="10" x1="46.2" y1="41.809" x2="46.985" y2="41.6"/>
	
		<line fill="none" stroke="#8E9BA4" stroke-width="0.3041" stroke-miterlimit="10" x1="46.604" y1="42.721" x2="47.934" y2="42.264"/>
	
		<line fill="none" stroke="#8E9BA4" stroke-width="0.3041" stroke-miterlimit="10" x1="47.138" y1="43.652" x2="47.954" y2="43.33"/>
	
		<line fill="none" stroke="#8E9BA4" stroke-width="0.3041" stroke-miterlimit="10" x1="47.593" y1="44.367" x2="48.905" y2="43.785"/>
	
		<line fill="none" stroke="#8E9BA4" stroke-width="0.3041" stroke-miterlimit="10" x1="47.999" y1="44.799" x2="48.582" y2="44.57"/>
</g>
</svg>
