<?xml version="1.0" encoding="utf-8"?>
<!-- Generator: Adobe Illustrator 17.0.0, SVG Export Plug-In . SVG Version: 6.00 Build 0)  -->
<!DOCTYPE svg PUBLIC "-//W3C//DTD SVG 1.1//EN" "http://www.w3.org/Graphics/SVG/1.1/DTD/svg11.dtd">
<svg version="1.1" id="Ebene_1" xmlns="http://www.w3.org/2000/svg" xmlns:xlink="http://www.w3.org/1999/xlink" x="0px" y="0px"
	 width="65.805px" height="55px" viewBox="0 0 65.805 55" enable-background="new 0 0 65.805 55" xml:space="preserve">
<g>
	<g>
		<polygon fill="#8E9BA4" points="38.03,34.1 32.896,31.716 32.896,23.1 38.03,20.9 		"/>
		<path fill="#8E9BA4" d="M43.713,52.617h3.85V55H35.647v-2.384h3.85v-2.75h-1.833V5.317h1.833V2.383h-3.85V0h11.916v2.383h-3.85
			v2.934h2.017V50.05h-2.017V52.617z"/>
		<path fill="#8E9BA4" d="M45.546,20.639c0,0,5.735-0.275,8.25,0.353c3.851,0.962,5.042,4.208,5.042,6.325
			c0,2.246-1.191,5.133-5.042,6.325c-1.812,0.561-8.25,0.535-8.25,0.535v7.532c0,0,8.204,0.366,11.551-1.009
			c5.106-2.098,8.708-7.272,8.708-13.566c0-6.004-3.529-11.367-8.708-13.2c-3.291-1.165-11.551-0.825-11.551-0.825V20.639z"/>
		<g>
			<rect x="12.567" y="21.383" fill="#8E9BA4" width="6.14" height="3.431"/>
			<rect x="12.567" y="16.435" fill="#8E9BA4" width="6.14" height="3.432"/>
			<polygon fill="#8E9BA4" stroke="#FFFFFF" stroke-width="0.3667" stroke-miterlimit="10" points="2.79,15.167 2.79,6.184 
				13.606,6.184 13.606,7.65 16.814,7.65 16.814,11.867 13.606,11.867 13.606,15.167 			"/>
			<path fill="#8E9BA4" stroke="#FFFFFF" stroke-width="0.3667" stroke-miterlimit="10" d="M8.159,12.606
				c4.404,0,7.975,3.57,7.975,7.975c0,4.404-3.57,7.975-7.975,7.975c-4.405,0-7.976-3.571-7.976-7.975
				C0.183,16.176,3.754,12.606,8.159,12.606"/>
			<circle fill="#FFFFFF" cx="8.158" cy="20.581" r="4.767"/>
			<rect x="5.082" y="18.559" fill="#8E9BA4" width="6.416" height="3.85"/>
		</g>
		<rect x="16.588" y="8.947" fill="#8E9BA4" width="1.65" height="1.65"/>
		
			<rect x="28.63" y="21.764" fill="#8E9BA4" stroke="#FFFFFF" stroke-width="0.3667" stroke-miterlimit="10" width="4.034" height="11.184"/>
		<rect x="25.504" y="22.882" fill="#8E9BA4" width="2.952" height="8.946"/>
		
			<rect x="4.274" y="4.517" fill="#8E9BA4" stroke="#FFFFFF" stroke-width="0.3667" stroke-miterlimit="10" width="8.433" height="1.65"/>
		<rect x="29.7" y="32.672" fill="#8E9BA4" width="1.833" height="1.649"/>
		<path fill="none" stroke="#8E9BA4" stroke-width="0.9167" stroke-miterlimit="10" d="M17.535,9.773
			c3.544-0.122,5.553,1.859,6.294,3.727c1.527,3.85-1.561,9.026-2.628,11c-2.444,4.522-5.374,8-6.111,12.833
			c-0.825,5.408,3.056,9.717,6.661,10.083c3.648,0.371,6.148-1.792,7.639-4.277c1.466-2.445,1.222-6.172,1.283-9.308"/>
		<g>
			<polygon fill="#FFFFFF" points="41.125,17.673 41.125,14.161 39.707,15.58 39.707,13.862 41.734,11.833 43.761,13.862 
				43.761,15.58 42.342,14.161 42.342,17.673 			"/>
		</g>
	</g>
	<line fill="none" stroke="#FFFFFF" stroke-width="0.3667" x1="37.664" y1="5.317" x2="45.73" y2="5.317"/>
	<line fill="none" stroke="#FFFFFF" stroke-width="0.3667" x1="37.615" y1="49.965" x2="45.95" y2="49.965"/>
</g>
</svg>
