<?xml version="1.0" encoding="utf-8"?>
<!-- Generator: Adobe Illustrator 17.0.0, SVG Export Plug-In . SVG Version: 6.00 Build 0)  -->
<!DOCTYPE svg PUBLIC "-//W3C//DTD SVG 1.1//EN" "http://www.w3.org/Graphics/SVG/1.1/DTD/svg11.dtd">
<svg version="1.1" id="Ebene_1" xmlns="http://www.w3.org/2000/svg" xmlns:xlink="http://www.w3.org/1999/xlink" x="0px" y="0px"
	 width="148px" height="50px" viewBox="0 0 148 50" enable-background="new 0 0 148 50" xml:space="preserve">
<g>
	<g>
		<polygon fill="#8E9BA4" points="92.783,29.996 89.049,28.263 89.049,21.996 92.783,20.396 		"/>
		<path fill="#8E9BA4" d="M96.916,43.463h2.801v1.733H91.05v-1.733h2.799v-2h-1.333v-32.4h1.333V6.93H91.05V5.196h8.667V6.93h-2.801
			v2.133h1.466v32.533h-1.466V43.463z"/>
		<path fill="#8E9BA4" d="M98.249,20.206c0,0,4.171-0.201,6.001,0.256c2.799,0.7,3.666,3.061,3.666,4.6
			c0,1.634-0.866,3.733-3.666,4.6c-1.317,0.409-6.001,0.388-6.001,0.388v5.478c0,0,5.966,0.267,8.399-0.73
			c3.715-1.524,6.334-5.292,6.334-9.868c0-4.366-2.567-8.267-6.334-9.6c-2.393-0.849-8.399-0.6-8.399-0.6V20.206z"/>
		<g>
			<rect x="74.263" y="20.747" fill="#8E9BA4" width="4.466" height="2.496"/>
			<rect x="74.263" y="17.148" fill="#8E9BA4" width="4.466" height="2.496"/>
			<polygon fill="#8E9BA4" stroke="#FFFFFF" stroke-width="0.3056" stroke-miterlimit="10" points="67.153,16.227 67.153,9.692 
				75.02,9.692 75.02,10.759 77.353,10.759 77.353,13.827 75.02,13.827 75.02,16.227 			"/>
			<path fill="#8E9BA4" stroke="#FFFFFF" stroke-width="0.3056" stroke-miterlimit="10" d="M71.058,14.363
				c3.204,0,5.8,2.597,5.8,5.8c0,3.204-2.596,5.801-5.8,5.801c-3.203,0-5.801-2.597-5.801-5.801
				C65.257,16.959,67.854,14.363,71.058,14.363"/>
			<circle fill="#FFFFFF" cx="71.058" cy="20.163" r="3.467"/>
			<rect x="68.82" y="18.693" fill="#8E9BA4" width="4.667" height="2.799"/>
		</g>
		<rect x="77.188" y="11.703" fill="#8E9BA4" width="1.199" height="1.2"/>
		
			<rect x="85.945" y="21.024" fill="#8E9BA4" stroke="#FFFFFF" stroke-width="0.3056" stroke-miterlimit="10" width="2.936" height="8.132"/>
		<rect x="83.673" y="21.837" fill="#8E9BA4" width="2.147" height="6.507"/>
		
			<rect x="68.232" y="8.48" fill="#8E9BA4" stroke="#FFFFFF" stroke-width="0.3056" stroke-miterlimit="10" width="6.133" height="1.201"/>
		<rect x="86.723" y="28.959" fill="#8E9BA4" width="1.334" height="1.198"/>
		<path fill="none" stroke="#8E9BA4" stroke-width="0.7639" stroke-miterlimit="10" d="M77.877,12.304
			c2.578-0.089,4.039,1.352,4.578,2.71c1.111,2.8-1.135,6.564-1.911,7.999c-1.778,3.29-3.909,5.819-4.445,9.334
			c-0.6,3.934,2.223,7.066,4.844,7.335c2.654,0.269,4.472-1.305,5.557-3.113c1.065-1.775,0.888-4.489,0.933-6.769"/>
		<g>
			<polygon fill="#FFFFFF" points="95.034,18.049 95.034,15.495 94.001,16.527 94.001,15.277 95.477,13.803 96.951,15.277 
				96.951,16.527 95.918,15.495 95.918,18.049 			"/>
		</g>
	</g>
	<line fill="none" stroke="#FFFFFF" stroke-width="0.3056" x1="92.516" y1="9.063" x2="98.382" y2="9.063"/>
	<line fill="none" stroke="#FFFFFF" stroke-width="0.3056" x1="92.48" y1="41.534" x2="98.542" y2="41.534"/>
</g>
<g>
	<path fill="#8E9BA4" stroke="#FFFFFF" stroke-width="0.3911" d="M12.681,20.956c0,0,3.101,19.254,3.36,20.207
		c0.338,1.288,2.912,7.836,10.902,7.836c7.981,0,10.597-6.748,10.826-7.893c0.227-1.137,0.227-1.308,0.227-1.308l2.899-18.842
		H12.681z"/>
	<path fill="#8E9BA4" stroke="#FFFFFF" stroke-width="0.3911" d="M2.364,20.275v2.215H1V8.67h1.364v2.39l1.901,0.922h0.833V10.55
		h43.172v1.362h0.889l2.016-0.852V8.67h1.364v13.82h-1.364v-2.215l-2.016-0.683h-0.889v1.197H4.947v-1.197H4.265L2.364,20.275z"/>
	<rect x="23.345" y="2.097" fill="#8E9BA4" width="1.998" height="1.364"/>
	<rect x="23.345" y="3.707" fill="#8E9BA4" width="1.998" height="1.365"/>
	<polygon fill="#8E9BA4" stroke="#FFFFFF" stroke-width="0.3911" points="28.703,5.366 28.703,8.29 25.006,8.29 25.006,7.812 
		23.959,7.812 23.959,6.269 25.006,6.269 25.006,5.366 	"/>
	<path fill="#8E9BA4" stroke="#FFFFFF" stroke-width="0.3911" d="M26.78,6.198c-1.437,0-2.6-1.161-2.6-2.597
		c0-1.435,1.163-2.602,2.6-2.602c1.431,0,2.602,1.167,2.602,2.602C29.382,5.037,28.212,6.198,26.78,6.198"/>
	<path fill="#FFFFFF" d="M28.332,3.601c0,0.856-0.691,1.55-1.551,1.55c-0.86,0-1.55-0.693-1.55-1.55c0-0.856,0.69-1.555,1.55-1.555
		C27.641,2.046,28.332,2.745,28.332,3.601z"/>
	<rect x="25.54" y="8.29" fill="#8E9BA4" stroke="#FFFFFF" stroke-width="0.3911" width="2.39" height="2.159"/>
	<rect x="25.692" y="3.003" fill="#8E9BA4" width="2.09" height="1.256"/>
	<rect x="22.609" y="2.429" fill="#8E9BA4" width="0.735" height="0.683"/>
	<rect x="22.609" y="4.053" fill="#8E9BA4" width="0.735" height="0.682"/>
	<path fill="#FFFFFF" d="M27.618,26.316c0,0.452-0.37,0.827-0.827,0.827c-0.455,0-0.827-0.375-0.827-0.827
		c0-0.456,0.373-0.821,0.827-0.821C27.248,25.495,27.618,25.86,27.618,26.316z"/>
	<path fill="#FFFFFF" d="M27.618,31.865c0,0.468-0.37,0.829-0.827,0.829c-0.455,0-0.827-0.361-0.827-0.829
		c0-0.461,0.373-0.824,0.827-0.824C27.248,31.041,27.618,31.404,27.618,31.865z"/>
	<path fill="#FFFFFF" d="M27.618,37.421c0,0.452-0.37,0.82-0.827,0.82c-0.455,0-0.827-0.368-0.827-0.82
		c0-0.454,0.373-0.829,0.827-0.829C27.248,36.592,27.618,36.967,27.618,37.421z"/>
	<path fill="none" stroke="#FFFFFF" stroke-width="0.3911" d="M2.301,20.72"/>
	<path fill="none" stroke="#FFFFFF" stroke-width="0.3911" d="M2.301,10.479"/>
	<line fill="none" stroke="#FFFFFF" stroke-width="0.3911" x1="5.119" y1="10.72" x2="5.119" y2="20.741"/>
	<line fill="none" stroke="#FFFFFF" stroke-width="0.3911" x1="47.952" y1="10.72" x2="47.952" y2="20.741"/>
</g>
<g>
	<path fill="#8E9BA4" d="M142.313,36.652c0,0.178-0.141,0.319-0.317,0.319h-14.362c-0.177,0-0.317-0.142-0.317-0.319V17.291
		c0-0.176,0.141-0.319,0.317-0.319h14.362c0.177,0,0.317,0.143,0.317,0.319V36.652z"/>
	<g>
		<polygon fill="#FFFFFF" points="133.488,18.104 135.14,18.104 134.473,17.438 135.28,17.438 136.233,18.391 135.28,19.343 
			134.473,19.343 135.14,18.675 133.488,18.675 		"/>
	</g>
	<path fill="#8E9BA4" stroke="#FFFFFF" stroke-width="0.2128" stroke-miterlimit="10" d="M124.516,24.908v4.999h-1.829V17.461h1.829
		v4.361h2.014v-1.915h16.488v1.915h2.095v-4.361h1.829v12.446h-1.829v-4.999h-2.095v9.361h-16.488v-9.361H124.516z"/>
	<circle fill="#FFFFFF" cx="128.586" cy="18.391" r="0.513"/>
	<circle fill="#FFFFFF" cx="128.586" cy="35.624" r="0.513"/>
	<circle fill="#FFFFFF" cx="141.032" cy="18.391" r="0.515"/>
	<circle fill="#FFFFFF" cx="141.032" cy="35.624" r="0.515"/>
	
		<rect x="133.622" y="31.323" fill="#8E9BA4" stroke="#FFFFFF" stroke-width="0.2128" stroke-miterlimit="10" width="2.304" height="1.182"/>
	<path fill="#8E9BA4" stroke="#FFFFFF" stroke-width="0.2128" stroke-miterlimit="10" d="M135.652,34.754h-1.721v-2.231h1.721
		V34.754z"/>
	<circle fill="#8E9BA4" stroke="#FFFFFF" stroke-width="0.2128" stroke-miterlimit="10" cx="134.791" cy="26.724" r="5.207"/>
	<path fill="#8E9BA4" stroke="#FFFFFF" stroke-width="0.2128" stroke-miterlimit="10" d="M130.519,23.926
		c-0.401-0.329-0.414-1.007-0.047-1.374c0.366-0.366,1.037-0.391,1.358,0.013"/>
	<path fill="#8E9BA4" stroke="#FFFFFF" stroke-width="0.2128" stroke-miterlimit="10" d="M139.046,23.926
		c0.401-0.329,0.414-1.007,0.047-1.374c-0.367-0.366-1.037-0.391-1.358,0.013"/>
	<path fill="#8E9BA4" stroke="#FFFFFF" stroke-width="0.2128" stroke-miterlimit="10" d="M130.519,29.512
		c-0.401,0.328-0.414,1.004-0.047,1.371c0.366,0.368,1.037,0.393,1.358-0.011"/>
	<path fill="#8E9BA4" stroke="#FFFFFF" stroke-width="0.2128" stroke-miterlimit="10" d="M139.034,29.53
		c0.4,0.328,0.412,1.007,0.045,1.373c-0.365,0.368-1.038,0.391-1.359-0.011"/>
</g>
</svg>
