<?xml version="1.0" encoding="utf-8"?>
<!-- Generator: Adobe Illustrator 17.0.0, SVG Export Plug-In . SVG Version: 6.00 Build 0)  -->
<!DOCTYPE svg PUBLIC "-//W3C//DTD SVG 1.1//EN" "http://www.w3.org/Graphics/SVG/1.1/DTD/svg11.dtd">
<svg version="1.1" id="Ebene_1" xmlns="http://www.w3.org/2000/svg" xmlns:xlink="http://www.w3.org/1999/xlink" x="0px" y="0px"
	 width="27.711px" height="55px" viewBox="0 0 27.711 55" enable-background="new 0 0 27.711 55" xml:space="preserve">
<g>
	<rect x="8.963" y="26.312" fill="#8E9BA4" stroke="#FFFFFF" stroke-width="0.3955" width="9.32" height="5.769"/>
	<rect x="2.116" y="0" fill="#8E9BA4" width="23.142" height="5.897"/>
	<rect x="4.844" y="12.624" fill="#8E9BA4" width="6.371" height="3.56"/>
	<rect x="9.756" y="15.72" fill="#8E9BA4" width="7.92" height="2.857"/>
	<polygon fill="#8E9BA4" points="18.6,32.575 18.6,36.208 18.6,38.232 24.122,38.232 24.116,31.955 27.711,31.955 27.684,55 
		24.122,55 24.122,48.759 17.131,48.753 15.228,50.525 12.718,50.525 11.006,48.714 3.506,48.714 3.506,55 0,55 0,31.955 
		3.506,31.955 3.506,38.232 8.724,38.232 8.724,36.188 8.747,32.575 	"/>
	<rect x="10.231" y="18.994" fill="#8E9BA4" width="7.288" height="2.876"/>
	<g>
		<rect x="13.732" y="41.561" fill="none" width="6.058" height="4.206"/>
		<g>
			<polygon fill="#FFFFFF" points="13.732,43.276 17.375,43.276 15.903,41.803 17.685,41.803 19.79,43.907 17.685,46.01 
				15.903,46.01 17.375,44.538 13.732,44.538 			"/>
		</g>
	</g>
	<rect x="11.309" y="18.767" fill="#8E9BA4" stroke="#FFFFFF" stroke-width="0.3831" width="5.072" height="13.822"/>
	
		<line fill="none" stroke="#FFFFFF" stroke-width="0.3804" stroke-miterlimit="10" x1="11.246" y1="29.737" x2="16.254" y2="29.737"/>
	
		<rect x="12.514" y="28.468" fill="none" stroke="#FFFFFF" stroke-width="0.3804" stroke-miterlimit="10" width="2.473" height="1.141"/>
	<path fill="#8E9BA4" stroke="#FFFFFF" stroke-width="0.3864" d="M13.886,16.828c-4.569,0-8.274-3.704-8.274-8.274
		c0-4.569,3.704-8.274,8.274-8.274c4.57,0,8.274,3.704,8.274,8.274C22.16,13.123,18.456,16.828,13.886,16.828"/>
	<circle fill="#FFFFFF" cx="13.886" cy="8.554" r="4.946"/>
	
		<line fill="none" stroke="#FFFFFF" stroke-width="0.3804" stroke-miterlimit="10" x1="10.706" y1="32.621" x2="10.706" y2="40.61"/>
	
		<line fill="none" stroke="#FFFFFF" stroke-width="0.3804" stroke-miterlimit="10" x1="16.983" y1="32.621" x2="16.983" y2="40.61"/>
	<line fill="none" stroke="#FFFFFF" stroke-width="0.3804" stroke-miterlimit="10" x1="8.519" y1="37.947" x2="8.519" y2="39.088"/>
	
		<line fill="none" stroke="#FFFFFF" stroke-width="0.3804" stroke-miterlimit="10" x1="18.791" y1="37.995" x2="18.791" y2="39.136"/>
	<path fill="none" stroke="#FFFFFF" stroke-width="0.3804" d="M11.277,32.241"/>
	<path fill="none" stroke="#FFFFFF" stroke-width="0.3804" d="M11.658,18.545"/>
	<path fill="none" stroke="#FFFFFF" stroke-width="0.3804" d="M16.223,32.241"/>
	<path fill="none" stroke="#FFFFFF" stroke-width="0.3804" d="M16.603,18.545"/>
	<line fill="none" stroke="#FFFFFF" stroke-width="0.3804" stroke-miterlimit="10" x1="13.75" y1="28.293" x2="13.75" y2="29.625"/>
	<rect x="10.421" y="6.467" fill="#8E9BA4" width="6.658" height="3.994"/>
</g>
</svg>
